<?xml version="1.0" standalone="yes"?>

<svg version="1.1" viewBox="0.0 0.0 960.0 540.0" fill="none" stroke="none" stroke-linecap="square" stroke-miterlimit="10" xmlns="http://www.w3.org/2000/svg" xmlns:xlink="http://www.w3.org/1999/xlink"><clipPath id="p.0"><path d="m0 0l960.0 0l0 540.0l-960.0 0l0 -540.0z" clip-rule="nonzero"></path></clipPath><g clip-path="url(#p.0)"><path fill="#000000" fill-opacity="0.0" d="m0 0l960.0 0l0 540.0l-960.0 0z" fill-rule="nonzero"></path><path fill="#d9d2e9" d="m601.8714 57.122704l-80.65344 0l-4.354431 -4.3544197l0 -21.771564l85.00787 0z" fill-rule="nonzero"></path><path stroke="#000000" stroke-width="2.0" stroke-linejoin="round" stroke-linecap="butt" d="m601.8714 57.122704l-80.65344 0l-4.354431 -4.3544197l0 -21.771564l85.00787 0z" fill-rule="nonzero"></path><path fill="#d9d2e9" d="m431.95276 57.122704l80.65344 0l4.354431 4.354416l0 21.771568l-85.00787 0z" fill-rule="nonzero"></path><path stroke="#000000" stroke-width="2.0" stroke-linejoin="round" stroke-linecap="butt" d="m431.95276 57.122704l80.65344 0l4.354431 4.354416l0 21.771568l-85.00787 0z" fill-rule="nonzero"></path><path fill="#000000" fill-opacity="0.0" d="m516.96063 30.988846l85.00787 0l0 26.125984l-85.00787 0z" fill-rule="nonzero"></path><path fill="#000000" d="m533.4269 44.346836q0 -3.390625 1.8125 -5.296875q1.828125 -1.921875 4.703125 -1.921875q1.875 0 3.390625 0.90625q1.515625 0.890625 2.296875 2.5q0.796875 1.609375 0.796875 3.65625q0 2.0625 -0.84375 3.703125q-0.828125 1.625 -2.359375 2.46875q-1.53125 0.84375 -3.296875 0.84375q-1.921875 0 -3.4375 -0.921875q-1.5 -0.9375 -2.28125 -2.53125q-0.78125 -1.609375 -0.78125 -3.40625zm1.859375 0.03125q0 2.453125 1.3125 3.875q1.328125 1.40625 3.3125 1.40625q2.03125 0 3.34375 -1.421875q1.3125 -1.4375 1.3125 -4.0625q0 -1.65625 -0.5625 -2.890625q-0.546875 -1.234375 -1.640625 -1.921875q-1.078125 -0.6875 -2.421875 -0.6875q-1.90625 0 -3.28125 1.3125q-1.375 1.3125 -1.375 4.390625zm14.527039 6.59375l-1.546875 0l0 -13.59375l1.65625 0l0 4.84375q1.0625 -1.328125 2.703125 -1.328125q0.90625 0 1.71875 0.375q0.8125 0.359375 1.328125 1.03125q0.53125 0.65625 0.828125 1.59375q0.296875 0.9375 0.296875 2.0q0 2.53125 -1.25 3.921875q-1.25 1.375 -3.0 1.375q-1.75 0 -2.734375 -1.453125l0 1.234375zm-0.015625 -5.0q0 1.765625 0.46875 2.5625q0.796875 1.28125 2.140625 1.28125q1.09375 0 1.890625 -0.9375q0.796875 -0.953125 0.796875 -2.84375q0 -1.921875 -0.765625 -2.84375q-0.765625 -0.921875 -1.84375 -0.921875q-1.09375 0 -1.890625 0.953125q-0.796875 0.953125 -0.796875 2.75zm8.844482 -6.65625l0 -1.9375l1.65625 0l0 1.9375l-1.65625 0zm-2.125 15.484375l0.3125 -1.421875q0.5 0.125 0.796875 0.125q0.515625 0 0.765625 -0.34375q0.25 -0.328125 0.25 -1.6875l0 -10.359375l1.65625 0l0 10.390625q0 1.828125 -0.46875 2.546875q-0.59375 0.921875 -2.0 0.921875q-0.671875 0 -1.3125 -0.171875zm13.019836 -7.0l1.71875 0.21875q-0.40625 1.5 -1.515625 2.34375q-1.09375 0.828125 -2.8125 0.828125q-2.15625 0 -3.421875 -1.328125q-1.265625 -1.328125 -1.265625 -3.734375q0 -2.484375 1.265625 -3.859375q1.28125 -1.375 3.328125 -1.375q1.984375 0 3.234375 1.34375q1.25 1.34375 1.25 3.796875q0 0.140625 -0.015625 0.4375l-7.34375 0q0.09375 1.625 0.921875 2.484375q0.828125 0.859375 2.0625 0.859375q0.90625 0 1.546875 -0.46875q0.65625 -0.484375 1.046875 -1.546875zm-5.484375 -2.703125l5.5 0q-0.109375 -1.234375 -0.625 -1.859375q-0.796875 -0.96875 -2.078125 -0.96875q-1.140625 0 -1.9375 0.78125q-0.78125 0.765625 -0.859375 2.046875zm15.547607 2.265625l1.640625 0.21875q-0.265625 1.6875 -1.375 2.65625q-1.109375 0.953125 -2.734375 0.953125q-2.015625 0 -3.25 -1.3125q-1.21875 -1.328125 -1.21875 -3.796875q0 -1.59375 0.515625 -2.78125q0.53125 -1.203125 1.609375 -1.796875q1.09375 -0.609375 2.359375 -0.609375q1.609375 0 2.625 0.8125q1.015625 0.8125 1.3125 2.3125l-1.625 0.25q-0.234375 -1.0 -0.828125 -1.5q-0.59375 -0.5 -1.421875 -0.5q-1.265625 0 -2.0625 0.90625q-0.78125 0.90625 -0.78125 2.859375q0 1.984375 0.765625 2.890625q0.765625 0.890625 1.984375 0.890625q0.984375 0 1.640625 -0.59375q0.65625 -0.609375 0.84375 -1.859375zm6.546875 2.109375l0.234375 1.484375q-0.703125 0.140625 -1.265625 0.140625q-0.90625 0 -1.40625 -0.28125q-0.5 -0.296875 -0.703125 -0.75q-0.203125 -0.46875 -0.203125 -1.984375l0 -5.65625l-1.234375 0l0 -1.3125l1.234375 0l0 -2.4375l1.65625 -1.0l0 3.4375l1.6875 0l0 1.3125l-1.6875 0l0 5.75q0 0.71875 0.078125 0.921875q0.09375 0.203125 0.296875 0.328125q0.203125 0.125 0.578125 0.125q0.265625 0 0.734375 -0.078125z" fill-rule="nonzero"></path><path fill="#cfe2f3" d="m182.06561 48.511154l-80.65345 0l-4.354416 -4.354416l0 -21.771568l85.007866 0z" fill-rule="nonzero"></path><path stroke="#000000" stroke-width="2.0" stroke-linejoin="round" stroke-linecap="butt" d="m182.06561 48.511154l-80.65345 0l-4.354416 -4.354416l0 -21.771568l85.007866 0z" fill-rule="nonzero"></path><path fill="#cfe2f3" d="m12.146981 48.511154l80.65346 0l4.354416 4.3544197l0 21.771564l-85.00787 0z" fill-rule="nonzero"></path><path stroke="#000000" stroke-width="2.0" stroke-linejoin="round" stroke-linecap="butt" d="m12.146981 48.511154l80.65346 0l4.354416 4.3544197l0 21.771564l-85.00787 0z" fill-rule="nonzero"></path><path fill="#000000" fill-opacity="0.0" d="m97.154854 22.377296l85.00788 0l0 26.125984l-85.00788 0z" fill-rule="nonzero"></path><path fill="#000000" d="m133.20834 37.59466l1.796875 0.453125q-0.5625 2.21875 -2.03125 3.390625q-1.46875 1.15625 -3.59375 1.15625q-2.203125 0 -3.578125 -0.890625q-1.375 -0.90625 -2.09375 -2.59375q-0.71875 -1.703125 -0.71875 -3.65625q0 -2.125 0.796875 -3.703125q0.8125 -1.578125 2.3125 -2.390625q1.5 -0.828125 3.296875 -0.828125q2.046875 0 3.4375 1.046875q1.390625 1.03125 1.9375 2.90625l-1.765625 0.421875q-0.46875 -1.484375 -1.375 -2.15625q-0.90625 -0.6875 -2.265625 -0.6875q-1.5625 0 -2.625 0.75q-1.046875 0.75 -1.484375 2.03125q-0.421875 1.265625 -0.421875 2.609375q0 1.734375 0.5 3.03125q0.515625 1.28125 1.578125 1.921875q1.078125 0.640625 2.3125 0.640625q1.515625 0 2.5625 -0.859375q1.046875 -0.875 1.421875 -2.59375zm7.207321 3.265625l0.234375 1.484375q-0.703125 0.140625 -1.265625 0.140625q-0.90625 0 -1.40625 -0.28125q-0.5 -0.296875 -0.703125 -0.75q-0.203125 -0.46875 -0.203125 -1.984375l0 -5.65625l-1.234375 0l0 -1.3125l1.234375 0l0 -2.4375l1.65625 -1.0l0 3.4375l1.6875 0l0 1.3125l-1.6875 0l0 5.75q0 0.71875 0.078125 0.921875q0.09375 0.203125 0.296875 0.328125q0.203125 0.125 0.578125 0.125q0.265625 0 0.734375 -0.078125zm0.90205383 -3.421875q0 -2.734375 1.53125 -4.0625q1.265625 -1.09375 3.09375 -1.09375q2.03125 0 3.3125 1.34375q1.296875 1.328125 1.296875 3.671875q0 1.90625 -0.578125 3.0q-0.5625 1.078125 -1.65625 1.6875q-1.078125 0.59375 -2.375 0.59375q-2.0625 0 -3.34375 -1.328125q-1.28125 -1.328125 -1.28125 -3.8125zm1.71875 0q0 1.890625 0.828125 2.828125q0.828125 0.9375 2.078125 0.9375q1.25 0 2.0625 -0.9375q0.828125 -0.953125 0.828125 -2.890625q0 -1.828125 -0.828125 -2.765625q-0.828125 -0.9375 -2.0625 -0.9375q-1.25 0 -2.078125 0.9375q-0.828125 0.9375 -0.828125 2.828125zm9.266342 4.921875l0 -9.859375l1.5 0l0 1.5q0.578125 -1.046875 1.0625 -1.375q0.484375 -0.34375 1.078125 -0.34375q0.84375 0 1.71875 0.546875l-0.578125 1.546875q-0.609375 -0.359375 -1.234375 -0.359375q-0.546875 0 -0.984375 0.328125q-0.421875 0.328125 -0.609375 0.90625q-0.28125 0.890625 -0.28125 1.953125l0 5.15625l-1.671875 0z" fill-rule="nonzero"></path><path fill="#d9d2e9" d="m281.16403 138.11778l85.00787 0l0 35.716537l-85.00787 0z" fill-rule="nonzero"></path><path stroke="#000000" stroke-width="2.0" stroke-linejoin="round" stroke-linecap="butt" d="m281.16403 138.11778l85.00787 0l0 35.716537l-85.00787 0z" fill-rule="nonzero"></path><path fill="#d9d2e9" d="m601.87006 153.64468l-80.65607 0l-4.3518066 -4.3517914l0 -21.758446l85.00787 0z" fill-rule="nonzero"></path><path stroke="#000000" stroke-width="2.0" stroke-linejoin="round" stroke-linecap="butt" d="m601.87006 153.64468l-80.65607 0l-4.3518066 -4.3517914l0 -21.758446l85.00787 0z" fill-rule="nonzero"></path><path fill="#d9d2e9" d="m431.95145 153.64468l80.6561 0l4.3517456 4.3517914l0 21.758453l-85.00784 0z" fill-rule="nonzero"></path><path stroke="#000000" stroke-width="2.0" stroke-linejoin="round" stroke-linecap="butt" d="m431.95145 153.64468l80.6561 0l4.3517456 4.3517914l0 21.758453l-85.00784 0z" fill-rule="nonzero"></path><path fill="#000000" fill-opacity="0.0" d="m516.9593 127.510826l85.00787 0l0 26.110237l-85.00787 0z" fill-rule="nonzero"></path><path fill="#000000" d="m533.4256 140.86095q0 -3.390625 1.8125 -5.296875q1.828125 -1.921875 4.703125 -1.921875q1.875 0 3.390625 0.90625q1.515625 0.890625 2.296875 2.5q0.796875 1.609375 0.796875 3.65625q0 2.0625 -0.84375 3.703125q-0.828125 1.625 -2.359375 2.46875q-1.53125 0.84375 -3.296875 0.84375q-1.921875 0 -3.4375 -0.921875q-1.5 -0.9375 -2.28125 -2.53125q-0.78125 -1.609375 -0.78125 -3.40625zm1.859375 0.03125q0 2.453125 1.3125 3.875q1.328125 1.40625 3.3125 1.40625q2.03125 0 3.34375 -1.421875q1.3125 -1.4375 1.3125 -4.0625q0 -1.65625 -0.5625 -2.890625q-0.546875 -1.234375 -1.640625 -1.921875q-1.078125 -0.6875 -2.421875 -0.6875q-1.90625 0 -3.28125 1.3125q-1.375 1.3125 -1.375 4.390625zm14.527039 6.59375l-1.546875 0l0 -13.59375l1.65625 0l0 4.84375q1.0625 -1.328125 2.703125 -1.328125q0.90625 0 1.71875 0.375q0.8125 0.359375 1.328125 1.03125q0.53125 0.65625 0.828125 1.59375q0.296875 0.9375 0.296875 2.0q0 2.53125 -1.25 3.921875q-1.25 1.375 -3.0 1.375q-1.75 0 -2.734375 -1.453125l0 1.234375zm-0.015625 -5.0q0 1.765625 0.46875 2.5625q0.796875 1.28125 2.140625 1.28125q1.09375 0 1.890625 -0.9375q0.796875 -0.953125 0.796875 -2.84375q0 -1.921875 -0.765625 -2.84375q-0.765625 -0.921875 -1.84375 -0.921875q-1.09375 0 -1.890625 0.953125q-0.796875 0.953125 -0.796875 2.75zm8.844482 -6.65625l0 -1.9375l1.65625 0l0 1.9375l-1.65625 0zm-2.125 15.484375l0.3125 -1.421875q0.5 0.125 0.796875 0.125q0.515625 0 0.765625 -0.34375q0.25 -0.328125 0.25 -1.6875l0 -10.359375l1.65625 0l0 10.390625q0 1.828125 -0.46875 2.546875q-0.59375 0.921875 -2.0 0.921875q-0.671875 0 -1.3125 -0.171875zm13.019775 -7.0l1.71875 0.21875q-0.40625 1.5 -1.515625 2.34375q-1.09375 0.828125 -2.8125 0.828125q-2.15625 0 -3.421875 -1.328125q-1.265625 -1.328125 -1.265625 -3.734375q0 -2.484375 1.265625 -3.859375q1.28125 -1.375 3.328125 -1.375q1.984375 0 3.234375 1.34375q1.25 1.34375 1.25 3.796875q0 0.140625 -0.015625 0.4375l-7.34375 0q0.09375 1.625 0.921875 2.484375q0.828125 0.859375 2.0625 0.859375q0.90625 0 1.546875 -0.46875q0.65625 -0.484375 1.046875 -1.546875zm-5.484375 -2.703125l5.5 0q-0.109375 -1.234375 -0.625 -1.859375q-0.796875 -0.96875 -2.078125 -0.96875q-1.140625 0 -1.9375 0.78125q-0.78125 0.765625 -0.859375 2.046875zm15.547607 2.265625l1.640625 0.21875q-0.265625 1.6875 -1.375 2.65625q-1.109375 0.953125 -2.734375 0.953125q-2.015625 0 -3.25 -1.3125q-1.21875 -1.328125 -1.21875 -3.796875q0 -1.59375 0.515625 -2.78125q0.53125 -1.203125 1.609375 -1.796875q1.09375 -0.609375 2.359375 -0.609375q1.609375 0 2.625 0.8125q1.015625 0.8125 1.3125 2.3125l-1.625 0.25q-0.234375 -1.0 -0.828125 -1.5q-0.59375 -0.5 -1.421875 -0.5q-1.265625 0 -2.0625 0.90625q-0.78125 0.90625 -0.78125 2.859375q0 1.984375 0.765625 2.890625q0.765625 0.890625 1.984375 0.890625q0.984375 0 1.640625 -0.59375q0.65625 -0.609375 0.84375 -1.859375zm6.546875 2.109375l0.234375 1.484375q-0.703125 0.140625 -1.265625 0.140625q-0.90625 0 -1.40625 -0.28125q-0.5 -0.296875 -0.703125 -0.75q-0.203125 -0.46875 -0.203125 -1.984375l0 -5.65625l-1.234375 0l0 -1.3125l1.234375 0l0 -2.4375l1.65625 -1.0l0 3.4375l1.6875 0l0 1.3125l-1.6875 0l0 5.75q0 0.71875 0.078125 0.921875q0.09375 0.203125 0.296875 0.328125q0.203125 0.125 0.578125 0.125q0.265625 0 0.734375 -0.078125z" fill-rule="nonzero"></path><path fill="#cfe2f3" d="m181.21916 140.5397l-80.65346 0l-4.354416 -4.354416l0 -21.771576l85.00787 0z" fill-rule="nonzero"></path><path stroke="#000000" stroke-width="2.0" stroke-linejoin="round" stroke-linecap="butt" d="m181.21916 140.5397l-80.65346 0l-4.354416 -4.354416l0 -21.771576l85.00787 0z" fill-rule="nonzero"></path><path fill="#cfe2f3" d="m11.300525 140.5397l80.65346 0l4.354416 4.354416l0 21.77156l-85.00787 0z" fill-rule="nonzero"></path><path stroke="#000000" stroke-width="2.0" stroke-linejoin="round" stroke-linecap="butt" d="m11.300525 140.5397l80.65346 0l4.354416 4.354416l0 21.77156l-85.00787 0z" fill-rule="nonzero"></path><path fill="#000000" fill-opacity="0.0" d="m96.308395 114.40584l85.00787 0l0 26.125992l-85.00787 0z" fill-rule="nonzero"></path><path fill="#000000" d="m132.3619 129.6232l1.796875 0.453125q-0.5625 2.21875 -2.03125 3.390625q-1.46875 1.15625 -3.59375 1.15625q-2.2031326 0 -3.5781326 -0.890625q-1.375 -0.90625 -2.09375 -2.59375q-0.71875 -1.703125 -0.71875 -3.6562424q0 -2.125 0.796875 -3.703125q0.8125 -1.578125 2.3125 -2.390625q1.5 -0.828125 3.2968826 -0.828125q2.046875 0 3.4375 1.046875q1.390625 1.03125 1.9375 2.90625l-1.765625 0.421875q-0.46875 -1.484375 -1.375 -2.15625q-0.90625 -0.6875 -2.265625 -0.6875q-1.5625076 0 -2.6250076 0.75q-1.046875 0.75 -1.484375 2.03125q-0.421875 1.265625 -0.421875 2.609375q0 1.7343674 0.5 3.0312424q0.515625 1.28125 1.578125 1.921875q1.078125 0.640625 2.3125076 0.640625q1.515625 0 2.5625 -0.859375q1.046875 -0.875 1.421875 -2.59375zm7.207321 3.265625l0.234375 1.484375q-0.703125 0.140625 -1.265625 0.140625q-0.90625 0 -1.40625 -0.28125q-0.5 -0.296875 -0.703125 -0.75q-0.203125 -0.46875 -0.203125 -1.984375l0 -5.6562424l-1.234375 0l0 -1.3125l1.234375 0l0 -2.4375l1.65625 -1.0l0 3.4375l1.6875 0l0 1.3125l-1.6875 0l0 5.7499924q0 0.71875 0.078125 0.921875q0.09375 0.203125 0.296875 0.328125q0.203125 0.125 0.578125 0.125q0.265625 0 0.734375 -0.078125zm0.90205383 -3.421875q0 -2.7343674 1.53125 -4.0624924q1.265625 -1.09375 3.09375 -1.09375q2.03125 0 3.3125 1.34375q1.296875 1.328125 1.296875 3.6718674q0 1.90625 -0.578125 3.0q-0.5625 1.078125 -1.65625 1.6875q-1.078125 0.59375 -2.375 0.59375q-2.0625 0 -3.34375 -1.328125q-1.28125 -1.328125 -1.28125 -3.8125zm1.71875 0q0 1.890625 0.828125 2.828125q0.828125 0.9375 2.078125 0.9375q1.25 0 2.0625 -0.9375q0.828125 -0.953125 0.828125 -2.890625q0 -1.8281174 -0.828125 -2.7656174q-0.828125 -0.9375 -2.0625 -0.9375q-1.25 0 -2.078125 0.9375q-0.828125 0.9375 -0.828125 2.8281174zm9.266342 4.921875l0 -9.859367l1.5 0l0 1.5q0.578125 -1.046875 1.0625 -1.375q0.484375 -0.34375 1.078125 -0.34375q0.84375 0 1.71875 0.546875l-0.578125 1.546875q-0.609375 -0.359375 -1.234375 -0.359375q-0.546875 0 -0.984375 0.328125q-0.421875 0.328125 -0.609375 0.90625q-0.28125 0.8906174 -0.28125 1.9531174l0 5.15625l-1.671875 0z" fill-rule="nonzero"></path><path fill="#d9d2e9" d="m282.8504 251.87401l85.00787 0l0 35.716537l-85.00787 0z" fill-rule="nonzero"></path><path stroke="#000000" stroke-width="2.0" stroke-linejoin="round" stroke-linecap="butt" d="m282.8504 251.87401l85.00787 0l0 35.716537l-85.00787 0z" fill-rule="nonzero"></path><path fill="#000000" fill-opacity="0.0" d="m282.8504 269.73227l-185.69556 -8.323486" fill-rule="nonzero"></path><path stroke="#000000" stroke-width="2.0" stroke-linejoin="round" stroke-linecap="butt" stroke-dasharray="2.0,6.0" d="m282.8504 269.73227l-173.70758 -7.786133" fill-rule="evenodd"></path><path fill="#000000" stroke="#000000" stroke-width="2.0" stroke-linecap="butt" d="m109.29074 258.646l-9.215012 2.8937073l8.919167 3.7065735z" fill-rule="evenodd"></path><path fill="#d9d2e9" d="m601.8714 256.95734l-80.65344 0l-4.354431 -4.3544006l0 -21.771576l85.00787 0z" fill-rule="nonzero"></path><path stroke="#000000" stroke-width="2.0" stroke-linejoin="round" stroke-linecap="butt" d="m601.8714 256.95734l-80.65344 0l-4.354431 -4.3544006l0 -21.771576l85.00787 0z" fill-rule="nonzero"></path><path fill="#d9d2e9" d="m431.95276 256.95734l80.65344 0l4.354431 4.354431l0 21.771576l-85.00787 0z" fill-rule="nonzero"></path><path stroke="#000000" stroke-width="2.0" stroke-linejoin="round" stroke-linecap="butt" d="m431.95276 256.95734l80.65344 0l4.354431 4.354431l0 21.771576l-85.00787 0z" fill-rule="nonzero"></path><path fill="#000000" fill-opacity="0.0" d="m516.96063 230.82349l85.00787 0l0 26.125977l-85.00787 0z" fill-rule="nonzero"></path><path fill="#000000" d="m533.4269 244.18149q0 -3.390625 1.8125 -5.296875q1.828125 -1.921875 4.703125 -1.921875q1.875 0 3.390625 0.90625q1.515625 0.890625 2.296875 2.5q0.796875 1.609375 0.796875 3.65625q0 2.0625 -0.84375 3.703125q-0.828125 1.625 -2.359375 2.46875q-1.53125 0.84375 -3.296875 0.84375q-1.921875 0 -3.4375 -0.921875q-1.5 -0.9375 -2.28125 -2.53125q-0.78125 -1.609375 -0.78125 -3.40625zm1.859375 0.03125q0 2.453125 1.3125 3.875q1.328125 1.40625 3.3125 1.40625q2.03125 0 3.34375 -1.421875q1.3125 -1.4375 1.3125 -4.0625q0 -1.65625 -0.5625 -2.890625q-0.546875 -1.234375 -1.640625 -1.921875q-1.078125 -0.6875 -2.421875 -0.6875q-1.90625 0 -3.28125 1.3125q-1.375 1.3125 -1.375 4.390625zm14.527039 6.59375l-1.546875 0l0 -13.59375l1.65625 0l0 4.84375q1.0625 -1.328125 2.703125 -1.328125q0.90625 0 1.71875 0.375q0.8125 0.359375 1.328125 1.03125q0.53125 0.65625 0.828125 1.59375q0.296875 0.9375 0.296875 2.0q0 2.53125 -1.25 3.921875q-1.25 1.375 -3.0 1.375q-1.75 0 -2.734375 -1.453125l0 1.234375zm-0.015625 -5.0q0 1.765625 0.46875 2.5625q0.796875 1.28125 2.140625 1.28125q1.09375 0 1.890625 -0.9375q0.796875 -0.953125 0.796875 -2.84375q0 -1.921875 -0.765625 -2.84375q-0.765625 -0.921875 -1.84375 -0.921875q-1.09375 0 -1.890625 0.953125q-0.796875 0.953125 -0.796875 2.75zm8.844482 -6.65625l0 -1.9375l1.65625 0l0 1.9375l-1.65625 0zm-2.125 15.484375l0.3125 -1.421875q0.5 0.125 0.796875 0.125q0.515625 0 0.765625 -0.34375q0.25 -0.328125 0.25 -1.6875l0 -10.359375l1.65625 0l0 10.390625q0 1.828125 -0.46875 2.546875q-0.59375 0.921875 -2.0 0.921875q-0.671875 0 -1.3125 -0.171875zm13.019836 -7.0l1.71875 0.21875q-0.40625 1.5 -1.515625 2.34375q-1.09375 0.828125 -2.8125 0.828125q-2.15625 0 -3.421875 -1.328125q-1.265625 -1.328125 -1.265625 -3.734375q0 -2.484375 1.265625 -3.859375q1.28125 -1.375 3.328125 -1.375q1.984375 0 3.234375 1.34375q1.25 1.34375 1.25 3.796875q0 0.140625 -0.015625 0.4375l-7.34375 0q0.09375 1.625 0.921875 2.484375q0.828125 0.859375 2.0625 0.859375q0.90625 0 1.546875 -0.46875q0.65625 -0.484375 1.046875 -1.546875zm-5.484375 -2.703125l5.5 0q-0.109375 -1.234375 -0.625 -1.859375q-0.796875 -0.96875 -2.078125 -0.96875q-1.140625 0 -1.9375 0.78125q-0.78125 0.765625 -0.859375 2.046875zm15.547607 2.265625l1.640625 0.21875q-0.265625 1.6875 -1.375 2.65625q-1.109375 0.953125 -2.734375 0.953125q-2.015625 0 -3.25 -1.3125q-1.21875 -1.328125 -1.21875 -3.796875q0 -1.59375 0.515625 -2.78125q0.53125 -1.203125 1.609375 -1.796875q1.09375 -0.609375 2.359375 -0.609375q1.609375 0 2.625 0.8125q1.015625 0.8125 1.3125 2.3125l-1.625 0.25q-0.234375 -1.0 -0.828125 -1.5q-0.59375 -0.5 -1.421875 -0.5q-1.265625 0 -2.0625 0.90625q-0.78125 0.90625 -0.78125 2.859375q0 1.984375 0.765625 2.890625q0.765625 0.890625 1.984375 0.890625q0.984375 0 1.640625 -0.59375q0.65625 -0.609375 0.84375 -1.859375zm6.546875 2.109375l0.234375 1.484375q-0.703125 0.140625 -1.265625 0.140625q-0.90625 0 -1.40625 -0.28125q-0.5 -0.296875 -0.703125 -0.75q-0.203125 -0.46875 -0.203125 -1.984375l0 -5.65625l-1.234375 0l0 -1.3125l1.234375 0l0 -2.4375l1.65625 -1.0l0 3.4375l1.6875 0l0 1.3125l-1.6875 0l0 5.75q0 0.71875 0.078125 0.921875q0.09375 0.203125 0.296875 0.328125q0.203125 0.125 0.578125 0.125q0.265625 0 0.734375 -0.078125z" fill-rule="nonzero"></path><path fill="#cfe2f3" d="m182.06561 248.3458l-80.65345 0l-4.354416 -4.354416l0 -21.77156l85.007866 0z" fill-rule="nonzero"></path><path stroke="#000000" stroke-width="2.0" stroke-linejoin="round" stroke-linecap="butt" d="m182.06561 248.3458l-80.65345 0l-4.354416 -4.354416l0 -21.77156l85.007866 0z" fill-rule="nonzero"></path><path fill="#cfe2f3" d="m12.146981 248.3458l80.65346 0l4.354416 4.354431l0 21.771545l-85.00787 0z" fill-rule="nonzero"></path><path stroke="#000000" stroke-width="2.0" stroke-linejoin="round" stroke-linecap="butt" d="m12.146981 248.3458l80.65346 0l4.354416 4.354431l0 21.771545l-85.00787 0z" fill-rule="nonzero"></path><path fill="#000000" fill-opacity="0.0" d="m97.154854 222.21194l85.00788 0l0 26.125977l-85.00788 0z" fill-rule="nonzero"></path><path fill="#000000" d="m133.20834 237.4293l1.796875 0.453125q-0.5625 2.21875 -2.03125 3.390625q-1.46875 1.15625 -3.59375 1.15625q-2.203125 0 -3.578125 -0.890625q-1.375 -0.90625 -2.09375 -2.59375q-0.71875 -1.703125 -0.71875 -3.65625q0 -2.125 0.796875 -3.703125q0.8125 -1.578125 2.3125 -2.390625q1.5 -0.828125 3.296875 -0.828125q2.046875 0 3.4375 1.046875q1.390625 1.03125 1.9375 2.90625l-1.765625 0.421875q-0.46875 -1.484375 -1.375 -2.15625q-0.90625 -0.6875 -2.265625 -0.6875q-1.5625 0 -2.625 0.75q-1.046875 0.75 -1.484375 2.03125q-0.421875 1.265625 -0.421875 2.609375q0 1.734375 0.5 3.03125q0.515625 1.28125 1.578125 1.921875q1.078125 0.640625 2.3125 0.640625q1.515625 0 2.5625 -0.859375q1.046875 -0.875 1.421875 -2.59375zm7.207321 3.265625l0.234375 1.484375q-0.703125 0.140625 -1.265625 0.140625q-0.90625 0 -1.40625 -0.28125q-0.5 -0.296875 -0.703125 -0.75q-0.203125 -0.46875 -0.203125 -1.984375l0 -5.65625l-1.234375 0l0 -1.3125l1.234375 0l0 -2.4375l1.65625 -1.0l0 3.4375l1.6875 0l0 1.3125l-1.6875 0l0 5.75q0 0.71875 0.078125 0.921875q0.09375 0.203125 0.296875 0.328125q0.203125 0.125 0.578125 0.125q0.265625 0 0.734375 -0.078125zm0.90205383 -3.421875q0 -2.734375 1.53125 -4.0625q1.265625 -1.09375 3.09375 -1.09375q2.03125 0 3.3125 1.34375q1.296875 1.328125 1.296875 3.671875q0 1.90625 -0.578125 3.0q-0.5625 1.078125 -1.65625 1.6875q-1.078125 0.59375 -2.375 0.59375q-2.0625 0 -3.34375 -1.328125q-1.28125 -1.328125 -1.28125 -3.8125zm1.71875 0q0 1.890625 0.828125 2.828125q0.828125 0.9375 2.078125 0.9375q1.25 0 2.0625 -0.9375q0.828125 -0.953125 0.828125 -2.890625q0 -1.828125 -0.828125 -2.765625q-0.828125 -0.9375 -2.0625 -0.9375q-1.25 0 -2.078125 0.9375q-0.828125 0.9375 -0.828125 2.828125zm9.266342 4.921875l0 -9.859375l1.5 0l0 1.5q0.578125 -1.046875 1.0625 -1.375q0.484375 -0.34375 1.078125 -0.34375q0.84375 0 1.71875 0.546875l-0.578125 1.546875q-0.609375 -0.359375 -1.234375 -0.359375q-0.546875 0 -0.984375 0.328125q-0.421875 0.328125 -0.609375 0.90625q-0.28125 0.890625 -0.28125 1.953125l0 5.15625l-1.671875 0z" fill-rule="nonzero"></path><path fill="#cfe2f3" d="m182.06561 358.08398l-80.65345 0l-4.354416 -4.3544006l0 -21.771576l85.007866 0z" fill-rule="nonzero"></path><path stroke="#000000" stroke-width="2.0" stroke-linejoin="round" stroke-linecap="butt" d="m182.06561 358.08398l-80.65345 0l-4.354416 -4.3544006l0 -21.771576l85.007866 0z" fill-rule="nonzero"></path><path fill="#cfe2f3" d="m12.146981 358.08398l80.65346 0l4.354416 4.354431l0 21.771545l-85.00787 0z" fill-rule="nonzero"></path><path stroke="#000000" stroke-width="2.0" stroke-linejoin="round" stroke-linecap="butt" d="m12.146981 358.08398l80.65346 0l4.354416 4.354431l0 21.771545l-85.00787 0z" fill-rule="nonzero"></path><path fill="#000000" fill-opacity="0.0" d="m97.154854 331.95013l85.00788 0l0 26.125977l-85.00788 0z" fill-rule="nonzero"></path><path fill="#000000" d="m133.20834 347.1675l1.796875 0.453125q-0.5625 2.21875 -2.03125 3.390625q-1.46875 1.15625 -3.59375 1.15625q-2.203125 0 -3.578125 -0.890625q-1.375 -0.90625 -2.09375 -2.59375q-0.71875 -1.703125 -0.71875 -3.65625q0 -2.125 0.796875 -3.703125q0.8125 -1.578125 2.3125 -2.390625q1.5 -0.828125 3.296875 -0.828125q2.046875 0 3.4375 1.046875q1.390625 1.03125 1.9375 2.90625l-1.765625 0.421875q-0.46875 -1.484375 -1.375 -2.15625q-0.90625 -0.6875 -2.265625 -0.6875q-1.5625 0 -2.625 0.75q-1.046875 0.75 -1.484375 2.03125q-0.421875 1.265625 -0.421875 2.609375q0 1.734375 0.5 3.03125q0.515625 1.28125 1.578125 1.921875q1.078125 0.640625 2.3125 0.640625q1.515625 0 2.5625 -0.859375q1.046875 -0.875 1.421875 -2.59375zm7.207321 3.265625l0.234375 1.484375q-0.703125 0.140625 -1.265625 0.140625q-0.90625 0 -1.40625 -0.28125q-0.5 -0.296875 -0.703125 -0.75q-0.203125 -0.46875 -0.203125 -1.984375l0 -5.65625l-1.234375 0l0 -1.3125l1.234375 0l0 -2.4375l1.65625 -1.0l0 3.4375l1.6875 0l0 1.3125l-1.6875 0l0 5.75q0 0.71875 0.078125 0.921875q0.09375 0.203125 0.296875 0.328125q0.203125 0.125 0.578125 0.125q0.265625 0 0.734375 -0.078125zm0.90205383 -3.421875q0 -2.734375 1.53125 -4.0625q1.265625 -1.09375 3.09375 -1.09375q2.03125 0 3.3125 1.34375q1.296875 1.328125 1.296875 3.671875q0 1.90625 -0.578125 3.0q-0.5625 1.078125 -1.65625 1.6875q-1.078125 0.59375 -2.375 0.59375q-2.0625 0 -3.34375 -1.328125q-1.28125 -1.328125 -1.28125 -3.8125zm1.71875 0q0 1.890625 0.828125 2.828125q0.828125 0.9375 2.078125 0.9375q1.25 0 2.0625 -0.9375q0.828125 -0.953125 0.828125 -2.890625q0 -1.828125 -0.828125 -2.765625q-0.828125 -0.9375 -2.0625 -0.9375q-1.25 0 -2.078125 0.9375q-0.828125 0.9375 -0.828125 2.828125zm9.266342 4.921875l0 -9.859375l1.5 0l0 1.5q0.578125 -1.046875 1.0625 -1.375q0.484375 -0.34375 1.078125 -0.34375q0.84375 0 1.71875 0.546875l-0.578125 1.546875q-0.609375 -0.359375 -1.234375 -0.359375q-0.546875 0 -0.984375 0.328125q-0.421875 0.328125 -0.609375 0.90625q-0.28125 0.890625 -0.28125 1.953125l0 5.15625l-1.671875 0z" fill-rule="nonzero"></path><path fill="#cfe2f3" d="m190.93964 331.95013l28.803146 0l0 0c15.907532 0 28.803146 5.703949 28.803146 12.740143c0 7.036194 -12.895615 12.740173 -28.803146 12.740173l-28.803146 0z" fill-rule="nonzero"></path><path stroke="#000000" stroke-width="2.0" stroke-linejoin="round" stroke-linecap="butt" d="m190.93964 331.95013l28.803146 0l0 0c15.907532 0 28.803146 5.703949 28.803146 12.740143c0 7.036194 -12.895615 12.740173 -28.803146 12.740173l-28.803146 0z" fill-rule="nonzero"></path><path fill="#000000" d="m202.81464 348.35092l-0.171875 0.859375q-0.375 0.109375 -0.734375 0.109375q-0.640625 0 -1.015625 -0.3125q-0.28125 -0.234375 -0.28125 -0.640625q0 -0.203125 0.15625 -0.9375l0.75 -3.625l-0.828125 0l0.171875 -0.8125l0.828125 0l0.328125 -1.53125l1.203125 -0.734375l-0.46875 2.265625l1.046875 0l-0.171875 0.8125l-1.046875 0l-0.71875 3.4375q-0.140625 0.65625 -0.140625 0.796875q0 0.1875 0.109375 0.28125q0.109375 0.09375 0.359375 0.09375q0.359375 0 0.625 -0.0625zm0.8652344 0.859375l1.78125 -8.59375l1.0625 0l-0.6875 3.296875q0.59375 -0.5625 1.09375 -0.8125q0.515625 -0.25 1.0625 -0.25q0.765625 0 1.1875 0.40625q0.4375 0.40625 0.4375 1.078125q0 0.328125 -0.1875 1.203125l-0.765625 3.671875l-1.0625 0l0.796875 -3.765625q0.171875 -0.828125 0.171875 -1.03125q0 -0.3125 -0.21875 -0.5q-0.203125 -0.1875 -0.609375 -0.1875q-0.578125 0 -1.09375 0.296875q-0.515625 0.296875 -0.8125 0.828125q-0.296875 0.515625 -0.546875 1.6875l-0.5625 2.671875l-1.046875 0zm8.173828 -7.390625l0.25 -1.203125l1.0625 0l-0.265625 1.203125l-1.046875 0zm-1.546875 7.390625l1.296875 -6.21875l1.0625 0l-1.296875 6.21875l-1.0625 0zm2.8066406 -2.125l1.0625 -0.0625q0 0.453125 0.140625 0.78125q0.140625 0.3125 0.515625 0.515625q0.375 0.203125 0.875 0.203125q0.703125 0 1.046875 -0.28125q0.359375 -0.28125 0.359375 -0.65625q0 -0.28125 -0.203125 -0.515625q-0.21875 -0.25 -1.0625 -0.609375q-0.84375 -0.359375 -1.078125 -0.515625q-0.390625 -0.234375 -0.59375 -0.5625q-0.1875 -0.328125 -0.1875 -0.75q0 -0.734375 0.578125 -1.25q0.59375 -0.53125 1.640625 -0.53125q1.171875 0 1.78125 0.546875q0.625 0.53125 0.640625 1.421875l-1.03125 0.0625q-0.03125 -0.5625 -0.40625 -0.890625q-0.375 -0.328125 -1.0625 -0.328125q-0.546875 0 -0.859375 0.25q-0.296875 0.25 -0.296875 0.546875q0 0.296875 0.265625 0.515625q0.171875 0.15625 0.90625 0.46875q1.21875 0.53125 1.53125 0.828125q0.515625 0.5 0.515625 1.1875q0 0.46875 -0.296875 0.921875q-0.28125 0.4375 -0.859375 0.703125q-0.578125 0.265625 -1.375 0.265625q-1.078125 0 -1.828125 -0.53125q-0.765625 -0.53125 -0.71875 -1.734375z" fill-rule="nonzero"></path><path fill="#000000" fill-opacity="0.0" d="m252.67717 51.97638l0 0c0 -19.838764 32.53868 -35.92126 72.67717 -35.92126l0 0c40.13849 0 72.677155 16.082497 72.677155 35.92126l0 0c0 19.83876 -32.538666 35.921257 -72.677155 35.921257l0 0c-40.13849 0 -72.67717 -16.082497 -72.67717 -35.921257z" fill-rule="nonzero"></path><path stroke="#000000" stroke-width="2.0" stroke-linejoin="round" stroke-linecap="butt" stroke-dasharray="2.0,6.0" d="m252.67717 51.97638l0 0c0 -19.838764 32.53868 -35.92126 72.67717 -35.92126l0 0c40.13849 0 72.677155 16.082497 72.677155 35.92126l0 0c0 19.83876 -32.538666 35.921257 -72.677155 35.921257l0 0c-40.13849 0 -72.67717 -16.082497 -72.67717 -35.921257z" fill-rule="nonzero"></path><path fill="#000000" fill-opacity="0.0" d="m297.46457 -7.5485563l52.409454 0l0 21.984251l-52.409454 0z" fill-rule="nonzero"></path><path fill="#000000" d="m311.21042 8.523568l0 -7.78125l1.1875 0l0 1.109375q0.859375 -1.28125 2.484375 -1.28125q0.703125 0 1.28125 0.25q0.59375 0.25 0.890625 0.671875q0.296875 0.40625 0.40625 0.9687501q0.078125 0.359375 0.078125 1.28125l0 4.78125l-1.328125 0l0 -4.734375q0 -0.796875 -0.15625 -1.1875q-0.140625 -0.40625 -0.53125 -0.6406251q-0.390625 -0.25 -0.921875 -0.25q-0.84375 0 -1.453125 0.5312501q-0.609375 0.53125 -0.609375 2.03125l0 4.25l-1.328125 0zm13.479248 -2.5l1.359375 0.15625q-0.3125 1.203125 -1.1875 1.859375q-0.875 0.65625 -2.234375 0.65625q-1.703125 0 -2.703125 -1.046875q-1.0 -1.046875 -1.0 -2.953125q0 -1.953125 1.015625 -3.03125q1.015625 -1.09375 2.625 -1.09375q1.5625 0 2.546875 1.0625q0.984375 1.0625001 0.984375 2.984375q0 0.125 0 0.359375l-5.8125 0q0.078125 1.28125 0.71875 1.96875q0.65625 0.671875 1.640625 0.671875q0.71875 0 1.234375 -0.375q0.515625 -0.390625 0.8125 -1.21875zm-4.328125 -2.140625l4.34375 0q-0.09375 -0.984375 -0.5 -1.46875q-0.625 -0.7656251 -1.625 -0.7656251q-0.921875 0 -1.546875 0.6093751q-0.609375 0.609375 -0.671875 1.625zm8.588593 4.640625l-2.375 -7.78125l1.359375 0l1.234375 4.5l0.46875 1.65625q0.03125 -0.125 0.40625 -1.59375l1.234375 -4.5625l1.34375 0l1.171875 4.515625l0.390625 1.484375l0.4375 -1.5l1.34375 -4.5l1.28125 0l-2.4375 7.78125l-1.359375 0l-1.25 -4.65625l-0.296875 -1.328125l-1.578125 5.984375l-1.375 0z" fill-rule="nonzero"></path><path fill="#000000" fill-opacity="0.0" d="m252.67717 155.97638l0 0c0 -19.83876 32.53868 -35.921265 72.67717 -35.921265l0 0c40.13849 0 72.677155 16.082504 72.677155 35.921265l0 0c0 19.83876 -32.538666 35.921265 -72.677155 35.921265l0 0c-40.13849 0 -72.67717 -16.082504 -72.67717 -35.921265z" fill-rule="nonzero"></path><path stroke="#000000" stroke-width="2.0" stroke-linejoin="round" stroke-linecap="butt" stroke-dasharray="2.0,6.0" d="m252.67717 155.97638l0 0c0 -19.83876 32.53868 -35.921265 72.67717 -35.921265l0 0c40.13849 0 72.677155 16.082504 72.677155 35.921265l0 0c0 19.83876 -32.538666 35.921265 -72.677155 35.921265l0 0c-40.13849 0 -72.67717 -16.082504 -72.67717 -35.921265z" fill-rule="nonzero"></path><path fill="#000000" fill-opacity="0.0" d="m281.40945 137.7454c6.478546 -5.633423 13.660095 -36.476814 38.8714 -33.80052c25.211273 2.6762848 93.663605 41.548553 112.3963 49.85826" fill-rule="nonzero"></path><path stroke="#000000" stroke-width="2.0" stroke-linejoin="round" stroke-linecap="butt" stroke-dasharray="2.0,6.0" d="m281.40945 137.7454c6.4785767 -5.633423 13.660095 -36.47682 38.8714 -33.80052c12.605621 1.33815 36.021515 11.725288 58.627625 22.816597c11.303009 5.545662 22.403625 11.267357 31.849243 16.122002c2.3613586 1.2136688 4.619385 2.3731384 6.75119 3.4621277c1.065918 0.54447937 2.1003113 1.0713501 3.1003418 1.5785675l1.2712097 0.6415405" fill-rule="evenodd"></path><path fill="#000000" stroke="#000000" stroke-width="2.0" stroke-linecap="butt" d="m420.43863 151.53793l9.60791 0.9891205l-6.724304 -6.933548z" fill-rule="evenodd"></path><path fill="#000000" fill-opacity="0.0" d="m252.67717 269.73096l0 0c0 -19.838745 32.53868 -35.92125 72.67717 -35.92125l0 0c40.13849 0 72.677155 16.082504 72.677155 35.92125l0 0c0 19.838776 -32.538666 35.921265 -72.677155 35.921265l0 0c-40.13849 0 -72.67717 -16.082489 -72.67717 -35.921265z" fill-rule="nonzero"></path><path stroke="#000000" stroke-width="2.0" stroke-linejoin="round" stroke-linecap="butt" stroke-dasharray="2.0,6.0" d="m252.67717 269.73096l0 0c0 -19.838745 32.53868 -35.92125 72.67717 -35.92125l0 0c40.13849 0 72.677155 16.082504 72.677155 35.92125l0 0c0 19.838776 -32.538666 35.921265 -72.677155 35.921265l0 0c-40.13849 0 -72.67717 -16.082489 -72.67717 -35.921265z" fill-rule="nonzero"></path><path fill="#d9d2e9" d="m282.85565 359.49344l85.00787 0l0 35.716522l-85.00787 0z" fill-rule="nonzero"></path><path stroke="#000000" stroke-width="2.0" stroke-linejoin="round" stroke-linecap="butt" d="m282.85565 359.49344l85.00787 0l0 35.716522l-85.00787 0z" fill-rule="nonzero"></path><path fill="#000000" fill-opacity="0.0" d="m282.85565 377.3517l-185.7008 -6.2047424" fill-rule="nonzero"></path><path stroke="#000000" stroke-width="2.0" stroke-linejoin="round" stroke-linecap="butt" stroke-dasharray="2.0,6.0" d="m282.85565 377.3517l-173.70749 -5.804016" fill-rule="evenodd"></path><path fill="#000000" stroke="#000000" stroke-width="2.0" stroke-linecap="butt" d="m109.25848 368.2461l-9.18145 2.9985352l8.960823 3.6047058z" fill-rule="evenodd"></path><path fill="#000000" fill-opacity="0.0" d="m252.68242 377.3504l0 0c0 -19.838776 32.53868 -35.921265 72.67717 -35.921265l0 0c40.13849 0 72.677155 16.082489 72.677155 35.921265l0 0c0 19.838745 -32.538666 35.921265 -72.677155 35.921265l0 0c-40.13849 0 -72.67717 -16.08252 -72.67717 -35.921265z" fill-rule="nonzero"></path><path stroke="#000000" stroke-width="2.0" stroke-linejoin="round" stroke-linecap="butt" stroke-dasharray="2.0,6.0" d="m252.68242 377.3504l0 0c0 -19.838776 32.53868 -35.921265 72.67717 -35.921265l0 0c40.13849 0 72.677155 16.082489 72.677155 35.921265l0 0c0 19.838745 -32.538666 35.921265 -72.677155 35.921265l0 0c-40.13849 0 -72.67717 -16.08252 -72.67717 -35.921265z" fill-rule="nonzero"></path><path fill="#000000" fill-opacity="0.0" d="m233.23885 344.7879c8.31015 -0.84469604 37.74803 -7.744507 49.860886 -5.0682373c12.112854 2.6763 19.01358 17.60498 22.816284 21.125977" fill-rule="nonzero"></path><path stroke="#000000" stroke-width="2.0" stroke-linejoin="round" stroke-linecap="butt" d="m233.23885 344.7879c8.310135 -0.84469604 37.74803 -7.744507 49.860886 -5.0682373c6.056427 1.3381653 10.809814 5.7394104 14.524445 10.246216c0.23217773 0.28170776 0.4602661 0.56378174 0.6843872 0.84555054c0.11206055 0.14086914 0.22311401 0.28170776 0.33319092 0.42233276l0.033203125 0.042816162" fill-rule="evenodd"></path><path fill="#000000" stroke="#000000" stroke-width="2.0" stroke-linecap="butt" d="m296.0407 353.26993l8.111023 5.2442017l-2.8424988 -9.230957z" fill-rule="evenodd"></path><path fill="#cfe2f3" d="m182.06561 467.18372l-80.65345 0l-4.354416 -4.3544006l0 -21.771576l85.007866 0z" fill-rule="nonzero"></path><path stroke="#000000" stroke-width="2.0" stroke-linejoin="round" stroke-linecap="butt" d="m182.06561 467.18372l-80.65345 0l-4.354416 -4.3544006l0 -21.771576l85.007866 0z" fill-rule="nonzero"></path><path fill="#cfe2f3" d="m12.146981 467.18372l80.65346 0l4.354416 4.354431l0 21.771576l-85.00787 0z" fill-rule="nonzero"></path><path stroke="#000000" stroke-width="2.0" stroke-linejoin="round" stroke-linecap="butt" d="m12.146981 467.18372l80.65346 0l4.354416 4.354431l0 21.771576l-85.00787 0z" fill-rule="nonzero"></path><path fill="#000000" fill-opacity="0.0" d="m97.154854 441.04987l85.00788 0l0 26.125977l-85.00788 0z" fill-rule="nonzero"></path><path fill="#000000" d="m133.20834 456.26724l1.796875 0.453125q-0.5625 2.21875 -2.03125 3.390625q-1.46875 1.15625 -3.59375 1.15625q-2.203125 0 -3.578125 -0.890625q-1.375 -0.90625 -2.09375 -2.59375q-0.71875 -1.703125 -0.71875 -3.65625q0 -2.125 0.796875 -3.703125q0.8125 -1.578125 2.3125 -2.390625q1.5 -0.828125 3.296875 -0.828125q2.046875 0 3.4375 1.046875q1.390625 1.03125 1.9375 2.90625l-1.765625 0.421875q-0.46875 -1.484375 -1.375 -2.15625q-0.90625 -0.6875 -2.265625 -0.6875q-1.5625 0 -2.625 0.75q-1.046875 0.75 -1.484375 2.03125q-0.421875 1.265625 -0.421875 2.609375q0 1.734375 0.5 3.03125q0.515625 1.28125 1.578125 1.921875q1.078125 0.640625 2.3125 0.640625q1.515625 0 2.5625 -0.859375q1.046875 -0.875 1.421875 -2.59375zm7.207321 3.265625l0.234375 1.484375q-0.703125 0.140625 -1.265625 0.140625q-0.90625 0 -1.40625 -0.28125q-0.5 -0.296875 -0.703125 -0.75q-0.203125 -0.46875 -0.203125 -1.984375l0 -5.65625l-1.234375 0l0 -1.3125l1.234375 0l0 -2.4375l1.65625 -1.0l0 3.4375l1.6875 0l0 1.3125l-1.6875 0l0 5.75q0 0.71875 0.078125 0.921875q0.09375 0.203125 0.296875 0.328125q0.203125 0.125 0.578125 0.125q0.265625 0 0.734375 -0.078125zm0.90205383 -3.421875q0 -2.734375 1.53125 -4.0625q1.265625 -1.09375 3.09375 -1.09375q2.03125 0 3.3125 1.34375q1.296875 1.328125 1.296875 3.671875q0 1.90625 -0.578125 3.0q-0.5625 1.078125 -1.65625 1.6875q-1.078125 0.59375 -2.375 0.59375q-2.0625 0 -3.34375 -1.328125q-1.28125 -1.328125 -1.28125 -3.8125zm1.71875 0q0 1.890625 0.828125 2.828125q0.828125 0.9375 2.078125 0.9375q1.25 0 2.0625 -0.9375q0.828125 -0.953125 0.828125 -2.890625q0 -1.828125 -0.828125 -2.765625q-0.828125 -0.9375 -2.0625 -0.9375q-1.25 0 -2.078125 0.9375q-0.828125 0.9375 -0.828125 2.828125zm9.266342 4.921875l0 -9.859375l1.5 0l0 1.5q0.578125 -1.046875 1.0625 -1.375q0.484375 -0.34375 1.078125 -0.34375q0.84375 0 1.71875 0.546875l-0.578125 1.546875q-0.609375 -0.359375 -1.234375 -0.359375q-0.546875 0 -0.984375 0.328125q-0.421875 0.328125 -0.609375 0.90625q-0.28125 0.890625 -0.28125 1.953125l0 5.15625l-1.671875 0z" fill-rule="nonzero"></path><path fill="#cfe2f3" d="m190.93964 441.04987l28.803146 0l0 0c15.907532 0 28.803146 5.7039795 28.803146 12.740173c0 7.036194 -12.895615 12.740143 -28.803146 12.740143l-28.803146 0z" fill-rule="nonzero"></path><path stroke="#000000" stroke-width="2.0" stroke-linejoin="round" stroke-linecap="butt" d="m190.93964 441.04987l28.803146 0l0 0c15.907532 0 28.803146 5.7039795 28.803146 12.740173c0 7.036194 -12.895615 12.740143 -28.803146 12.740143l-28.803146 0z" fill-rule="nonzero"></path><path fill="#000000" d="m202.81464 457.45065l-0.171875 0.859375q-0.375 0.109375 -0.734375 0.109375q-0.640625 0 -1.015625 -0.3125q-0.28125 -0.234375 -0.28125 -0.640625q0 -0.203125 0.15625 -0.9375l0.75 -3.625l-0.828125 0l0.171875 -0.8125l0.828125 0l0.328125 -1.53125l1.203125 -0.734375l-0.46875 2.265625l1.046875 0l-0.171875 0.8125l-1.046875 0l-0.71875 3.4375q-0.140625 0.65625 -0.140625 0.796875q0 0.1875 0.109375 0.28125q0.109375 0.09375 0.359375 0.09375q0.359375 0 0.625 -0.0625zm0.8652344 0.859375l1.78125 -8.59375l1.0625 0l-0.6875 3.296875q0.59375 -0.5625 1.09375 -0.8125q0.515625 -0.25 1.0625 -0.25q0.765625 0 1.1875 0.40625q0.4375 0.40625 0.4375 1.078125q0 0.328125 -0.1875 1.203125l-0.765625 3.671875l-1.0625 0l0.796875 -3.765625q0.171875 -0.828125 0.171875 -1.03125q0 -0.3125 -0.21875 -0.5q-0.203125 -0.1875 -0.609375 -0.1875q-0.578125 0 -1.09375 0.296875q-0.515625 0.296875 -0.8125 0.828125q-0.296875 0.515625 -0.546875 1.6875l-0.5625 2.671875l-1.046875 0zm8.173828 -7.390625l0.25 -1.203125l1.0625 0l-0.265625 1.203125l-1.046875 0zm-1.546875 7.390625l1.296875 -6.21875l1.0625 0l-1.296875 6.21875l-1.0625 0zm2.8066406 -2.125l1.0625 -0.0625q0 0.453125 0.140625 0.78125q0.140625 0.3125 0.515625 0.515625q0.375 0.203125 0.875 0.203125q0.703125 0 1.046875 -0.28125q0.359375 -0.28125 0.359375 -0.65625q0 -0.28125 -0.203125 -0.515625q-0.21875 -0.25 -1.0625 -0.609375q-0.84375 -0.359375 -1.078125 -0.515625q-0.390625 -0.234375 -0.59375 -0.5625q-0.1875 -0.328125 -0.1875 -0.75q0 -0.734375 0.578125 -1.25q0.59375 -0.53125 1.640625 -0.53125q1.171875 0 1.78125 0.546875q0.625 0.53125 0.640625 1.421875l-1.03125 0.0625q-0.03125 -0.5625 -0.40625 -0.890625q-0.375 -0.328125 -1.0625 -0.328125q-0.546875 0 -0.859375 0.25q-0.296875 0.25 -0.296875 0.546875q0 0.296875 0.265625 0.515625q0.171875 0.15625 0.90625 0.46875q1.21875 0.53125 1.53125 0.828125q0.515625 0.5 0.515625 1.1875q0 0.46875 -0.296875 0.921875q-0.28125 0.4375 -0.859375 0.703125q-0.578125 0.265625 -1.375 0.265625q-1.078125 0 -1.828125 -0.53125q-0.765625 -0.53125 -0.71875 -1.734375z" fill-rule="nonzero"></path><path fill="#000000" fill-opacity="0.0" d="m282.85565 503.59055l-185.7008 -23.343811" fill-rule="nonzero"></path><path stroke="#000000" stroke-width="2.0" stroke-linejoin="round" stroke-linecap="butt" stroke-dasharray="2.0,6.0" d="m282.85565 503.59055l-173.7945 -21.847107" fill-rule="evenodd"></path><path fill="#000000" stroke="#000000" stroke-width="2.0" stroke-linecap="butt" d="m109.473175 478.46576l-9.417343 2.14563l8.593292 4.4096985z" fill-rule="evenodd"></path><path fill="#000000" fill-opacity="0.0" d="m250.99213 487.80185l0 0c0 -19.838776 32.538666 -35.921265 72.677155 -35.921265l0 0c40.13849 0 72.677185 16.082489 72.677185 35.921265l0 0c0 19.838745 -32.538696 35.921234 -72.677185 35.921234l0 0c-40.13849 0 -72.677155 -16.082489 -72.677155 -35.921234z" fill-rule="nonzero"></path><path stroke="#000000" stroke-width="2.0" stroke-linejoin="round" stroke-linecap="butt" stroke-dasharray="2.0,6.0" d="m250.99213 487.80185l0 0c0 -19.838776 32.538666 -35.921265 72.677155 -35.921265l0 0c40.13849 0 72.677185 16.082489 72.677185 35.921265l0 0c0 19.838745 -32.538696 35.921234 -72.677185 35.921234l0 0c-40.13849 0 -72.677155 -16.082489 -72.677155 -35.921234z" fill-rule="nonzero"></path><path fill="#000000" fill-opacity="0.0" d="m233.23885 453.88766c8.31015 -0.84469604 37.74803 -7.7445374 49.860886 -5.0682373c12.112854 2.6763 19.01358 17.60498 22.816284 21.125977" fill-rule="nonzero"></path><path stroke="#000000" stroke-width="2.0" stroke-linejoin="round" stroke-linecap="butt" d="m233.23885 453.88766c8.310135 -0.84469604 37.74803 -7.7445374 49.860886 -5.0682373c6.056427 1.3381348 10.809814 5.73938 14.524445 10.246216c0.23217773 0.28170776 0.4602661 0.56378174 0.6843872 0.84558105c0.11206055 0.14086914 0.22311401 0.28167725 0.33319092 0.42230225l0.033203125 0.042816162" fill-rule="evenodd"></path><path fill="#000000" stroke="#000000" stroke-width="2.0" stroke-linecap="butt" d="m296.0407 462.36972l8.111023 5.244171l-2.8424988 -9.2309265z" fill-rule="evenodd"></path><path fill="#cfe2f3" d="m282.85565 469.9449l85.00787 0l0 62.456665l-85.00787 0z" fill-rule="nonzero"></path><path stroke="#000000" stroke-width="2.0" stroke-linejoin="round" stroke-linecap="butt" d="m282.85565 469.9449l85.00787 0l0 62.456665l-85.00787 0z" fill-rule="nonzero"></path><path fill="#000000" fill-opacity="0.0" d="m282.85565 477.46457l85.00787 0l0 52.251984l-85.00787 0z" fill-rule="nonzero"></path><path fill="#000000" d="m300.8088 496.5012l0 -8.609375l0.953125 0l0 0.796875q0.34375 -0.46875 0.765625 -0.703125q0.4375 -0.234375 1.046875 -0.234375q0.796875 0 1.40625 0.40625q0.609375 0.40625 0.90625 1.15625q0.3125 0.75 0.3125 1.640625q0 0.953125 -0.34375 1.71875q-0.328125 0.765625 -0.984375 1.171875q-0.65625 0.40625 -1.375 0.40625q-0.53125 0 -0.953125 -0.21875q-0.421875 -0.234375 -0.6875 -0.5625l0 3.03125l-1.046875 0zm0.953125 -5.46875q0 1.203125 0.484375 1.78125q0.484375 0.5625 1.171875 0.5625q0.703125 0 1.203125 -0.59375q0.5 -0.59375 0.5 -1.84375q0 -1.1875 -0.484375 -1.765625q-0.484375 -0.59375 -1.171875 -0.59375q-0.671875 0 -1.1875 0.625q-0.515625 0.625 -0.515625 1.828125zm5.705078 3.078125l0 -6.21875l0.953125 0l0 0.9375q0.359375 -0.65625 0.65625 -0.859375q0.3125 -0.21875 0.6875 -0.21875q0.53125 0 1.078125 0.328125l-0.359375 0.984375q-0.390625 -0.234375 -0.765625 -0.234375q-0.359375 0 -0.640625 0.21875q-0.265625 0.203125 -0.375 0.578125q-0.1875 0.5625 -0.1875 1.21875l0 3.265625l-1.046875 0zm3.6210938 -3.109375q0 -1.734375 0.953125 -2.5625q0.796875 -0.6875 1.953125 -0.6875q1.28125 0 2.09375 0.84375q0.828125 0.828125 0.828125 2.3125q0 1.203125 -0.359375 1.890625q-0.359375 0.6875 -1.0625 1.078125q-0.6875 0.375 -1.5 0.375q-1.296875 0 -2.109375 -0.828125q-0.796875 -0.84375 -0.796875 -2.421875zm1.078125 0q0 1.1875 0.515625 1.78125q0.53125 0.59375 1.3125 0.59375q0.796875 0 1.3125 -0.59375q0.515625 -0.59375 0.515625 -1.8125q0 -1.15625 -0.53125 -1.75q-0.515625 -0.59375 -1.296875 -0.59375q-0.78125 0 -1.3125 0.59375q-0.515625 0.578125 -0.515625 1.78125zm5.986328 5.5l0 -8.609375l0.953125 0l0 0.796875q0.34375 -0.46875 0.765625 -0.703125q0.4375 -0.234375 1.046875 -0.234375q0.796875 0 1.40625 0.40625q0.609375 0.40625 0.90625 1.15625q0.3125 0.75 0.3125 1.640625q0 0.953125 -0.34375 1.71875q-0.328125 0.765625 -0.984375 1.171875q-0.65625 0.40625 -1.375 0.40625q-0.53125 0 -0.953125 -0.21875q-0.421875 -0.234375 -0.6875 -0.5625l0 3.03125l-1.046875 0zm0.953125 -5.46875q0 1.203125 0.484375 1.78125q0.484375 0.5625 1.171875 0.5625q0.703125 0 1.203125 -0.59375q0.5 -0.59375 0.5 -1.84375q0 -1.1875 -0.484375 -1.765625q-0.484375 -0.59375 -1.171875 -0.59375q-0.671875 0 -1.1875 0.625q-0.515625 0.625 -0.515625 1.828125zm9.970703 1.078125l1.09375 0.125q-0.25 0.953125 -0.953125 1.484375q-0.703125 0.53125 -1.78125 0.53125q-1.359375 0 -2.171875 -0.84375q-0.796875 -0.84375 -0.796875 -2.359375q0 -1.5625 0.8125 -2.421875q0.8125 -0.875 2.09375 -0.875q1.25 0 2.03125 0.84375q0.796875 0.84375 0.796875 2.390625q0 0.09375 0 0.28125l-4.640625 0q0.0625 1.03125 0.578125 1.578125q0.515625 0.53125 1.296875 0.53125q0.578125 0 0.984375 -0.296875q0.421875 -0.3125 0.65625 -0.96875zm-3.453125 -1.703125l3.46875 0q-0.0625 -0.796875 -0.390625 -1.1875q-0.515625 -0.609375 -1.3125 -0.609375q-0.734375 0 -1.234375 0.484375q-0.484375 0.484375 -0.53125 1.3125zm5.861328 3.703125l0 -6.21875l0.953125 0l0 0.9375q0.359375 -0.65625 0.65625 -0.859375q0.3125 -0.21875 0.6875 -0.21875q0.53125 0 1.078125 0.328125l-0.359375 0.984375q-0.390625 -0.234375 -0.765625 -0.234375q-0.359375 0 -0.640625 0.21875q-0.265625 0.203125 -0.375 0.578125q-0.1875 0.5625 -0.1875 1.21875l0 3.265625l-1.046875 0zm6.3085938 -0.9375l0.15625 0.921875q-0.453125 0.09375 -0.796875 0.09375q-0.578125 0 -0.890625 -0.171875q-0.3125 -0.1875 -0.453125 -0.484375q-0.125 -0.296875 -0.125 -1.25l0 -3.578125l-0.765625 0l0 -0.8125l0.765625 0l0 -1.546875l1.046875 -0.625l0 2.171875l1.0625 0l0 0.8125l-1.0625 0l0 3.640625q0 0.453125 0.046875 0.578125q0.0625 0.125 0.1875 0.203125q0.125 0.078125 0.359375 0.078125q0.1875 0 0.46875 -0.03125zm0.9902344 3.328125l-0.125 -0.984375q0.34375 0.09375 0.609375 0.09375q0.34375 0 0.546875 -0.125q0.21875 -0.109375 0.359375 -0.3125q0.09375 -0.171875 0.328125 -0.796875q0.015625 -0.078125 0.09375 -0.25l-2.375 -6.234375l1.140625 0l1.296875 3.59375q0.25 0.6875 0.453125 1.453125q0.1875 -0.734375 0.4375 -1.421875l1.328125 -3.625l1.046875 0l-2.359375 6.328125q-0.390625 1.015625 -0.59375 1.40625q-0.28125 0.53125 -0.65625 0.765625q-0.359375 0.25 -0.859375 0.25q-0.296875 0 -0.671875 -0.140625zm9.71875 -2.390625l-1.046875 0l0 -6.71875q-0.390625 0.359375 -1.015625 0.734375q-0.609375 0.359375 -1.09375 0.53125l0 -1.015625q0.875 -0.421875 1.53125 -1.0q0.671875 -0.59375 0.953125 -1.15625l0.671875 0l0 8.625z" fill-rule="nonzero"></path><path fill="#000000" d="m300.8088 510.5012l0 -8.609375l0.953125 0l0 0.796875q0.34375 -0.46875 0.765625 -0.703125q0.4375 -0.234375 1.046875 -0.234375q0.796875 0 1.40625 0.40625q0.609375 0.40625 0.90625 1.15625q0.3125 0.75 0.3125 1.640625q0 0.953125 -0.34375 1.71875q-0.328125 0.765625 -0.984375 1.171875q-0.65625 0.40625 -1.375 0.40625q-0.53125 0 -0.953125 -0.21875q-0.421875 -0.234375 -0.6875 -0.5625l0 3.03125l-1.046875 0zm0.953125 -5.46875q0 1.203125 0.484375 1.78125q0.484375 0.5625 1.171875 0.5625q0.703125 0 1.203125 -0.59375q0.5 -0.59375 0.5 -1.84375q0 -1.1875 -0.484375 -1.765625q-0.484375 -0.59375 -1.171875 -0.59375q-0.671875 0 -1.1875 0.625q-0.515625 0.625 -0.515625 1.828125zm5.705078 3.078125l0 -6.21875l0.953125 0l0 0.9375q0.359375 -0.65625 0.65625 -0.859375q0.3125 -0.21875 0.6875 -0.21875q0.53125 0 1.078125 0.328125l-0.359375 0.984375q-0.390625 -0.234375 -0.765625 -0.234375q-0.359375 0 -0.640625 0.21875q-0.265625 0.203125 -0.375 0.578125q-0.1875 0.5625 -0.1875 1.21875l0 3.265625l-1.046875 0zm3.6210938 -3.109375q0 -1.734375 0.953125 -2.5625q0.796875 -0.6875 1.953125 -0.6875q1.28125 0 2.09375 0.84375q0.828125 0.828125 0.828125 2.3125q0 1.203125 -0.359375 1.890625q-0.359375 0.6875 -1.0625 1.078125q-0.6875 0.375 -1.5 0.375q-1.296875 0 -2.109375 -0.828125q-0.796875 -0.84375 -0.796875 -2.421875zm1.078125 0q0 1.1875 0.515625 1.78125q0.53125 0.59375 1.3125 0.59375q0.796875 0 1.3125 -0.59375q0.515625 -0.59375 0.515625 -1.8125q0 -1.15625 -0.53125 -1.75q-0.515625 -0.59375 -1.296875 -0.59375q-0.78125 0 -1.3125 0.59375q-0.515625 0.578125 -0.515625 1.78125zm5.986328 5.5l0 -8.609375l0.953125 0l0 0.796875q0.34375 -0.46875 0.765625 -0.703125q0.4375 -0.234375 1.046875 -0.234375q0.796875 0 1.40625 0.40625q0.609375 0.40625 0.90625 1.15625q0.3125 0.75 0.3125 1.640625q0 0.953125 -0.34375 1.71875q-0.328125 0.765625 -0.984375 1.171875q-0.65625 0.40625 -1.375 0.40625q-0.53125 0 -0.953125 -0.21875q-0.421875 -0.234375 -0.6875 -0.5625l0 3.03125l-1.046875 0zm0.953125 -5.46875q0 1.203125 0.484375 1.78125q0.484375 0.5625 1.171875 0.5625q0.703125 0 1.203125 -0.59375q0.5 -0.59375 0.5 -1.84375q0 -1.1875 -0.484375 -1.765625q-0.484375 -0.59375 -1.171875 -0.59375q-0.671875 0 -1.1875 0.625q-0.515625 0.625 -0.515625 1.828125zm9.970703 1.078125l1.09375 0.125q-0.25 0.953125 -0.953125 1.484375q-0.703125 0.53125 -1.78125 0.53125q-1.359375 0 -2.171875 -0.84375q-0.796875 -0.84375 -0.796875 -2.359375q0 -1.5625 0.8125 -2.421875q0.8125 -0.875 2.09375 -0.875q1.25 0 2.03125 0.84375q0.796875 0.84375 0.796875 2.390625q0 0.09375 0 0.28125l-4.640625 0q0.0625 1.03125 0.578125 1.578125q0.515625 0.53125 1.296875 0.53125q0.578125 0 0.984375 -0.296875q0.421875 -0.3125 0.65625 -0.96875zm-3.453125 -1.703125l3.46875 0q-0.0625 -0.796875 -0.390625 -1.1875q-0.515625 -0.609375 -1.3125 -0.609375q-0.734375 0 -1.234375 0.484375q-0.484375 0.484375 -0.53125 1.3125zm5.861328 3.703125l0 -6.21875l0.953125 0l0 0.9375q0.359375 -0.65625 0.65625 -0.859375q0.3125 -0.21875 0.6875 -0.21875q0.53125 0 1.078125 0.328125l-0.359375 0.984375q-0.390625 -0.234375 -0.765625 -0.234375q-0.359375 0 -0.640625 0.21875q-0.265625 0.203125 -0.375 0.578125q-0.1875 0.5625 -0.1875 1.21875l0 3.265625l-1.046875 0zm6.3085938 -0.9375l0.15625 0.921875q-0.453125 0.09375 -0.796875 0.09375q-0.578125 0 -0.890625 -0.171875q-0.3125 -0.1875 -0.453125 -0.484375q-0.125 -0.296875 -0.125 -1.25l0 -3.578125l-0.765625 0l0 -0.8125l0.765625 0l0 -1.546875l1.046875 -0.625l0 2.171875l1.0625 0l0 0.8125l-1.0625 0l0 3.640625q0 0.453125 0.046875 0.578125q0.0625 0.125 0.1875 0.203125q0.125 0.078125 0.359375 0.078125q0.1875 0 0.46875 -0.03125zm0.9902344 3.328125l-0.125 -0.984375q0.34375 0.09375 0.609375 0.09375q0.34375 0 0.546875 -0.125q0.21875 -0.109375 0.359375 -0.3125q0.09375 -0.171875 0.328125 -0.796875q0.015625 -0.078125 0.09375 -0.25l-2.375 -6.234375l1.140625 0l1.296875 3.59375q0.25 0.6875 0.453125 1.453125q0.1875 -0.734375 0.4375 -1.421875l1.328125 -3.625l1.046875 0l-2.359375 6.328125q-0.390625 1.015625 -0.59375 1.40625q-0.28125 0.53125 -0.65625 0.765625q-0.359375 0.25 -0.859375 0.25q-0.296875 0 -0.671875 -0.140625zm11.296875 -3.40625l0 1.015625l-5.6875 0q0 -0.375 0.125 -0.734375q0.21875 -0.578125 0.6875 -1.140625q0.484375 -0.5625 1.390625 -1.296875q1.40625 -1.15625 1.890625 -1.828125q0.5 -0.671875 0.5 -1.265625q0 -0.625 -0.453125 -1.046875q-0.453125 -0.4375 -1.171875 -0.4375q-0.765625 0 -1.21875 0.453125q-0.453125 0.453125 -0.46875 1.265625l-1.078125 -0.109375q0.109375 -1.21875 0.828125 -1.84375q0.734375 -0.640625 1.96875 -0.640625q1.234375 0 1.953125 0.6875q0.71875 0.6875 0.71875 1.703125q0 0.515625 -0.21875 1.015625q-0.203125 0.484375 -0.703125 1.046875q-0.484375 0.546875 -1.609375 1.5q-0.953125 0.796875 -1.234375 1.09375q-0.265625 0.28125 -0.4375 0.5625l4.21875 0z" fill-rule="nonzero"></path><path fill="#000000" d="m321.45236 522.11053l0 -1.203125l1.203125 0l0 1.203125l-1.203125 0zm3.3339844 0l0 -1.203125l1.203125 0l0 1.203125l-1.203125 0zm3.3339844 0l0 -1.203125l1.203125 0l0 1.203125l-1.203125 0z" fill-rule="nonzero"></path><path fill="#cfe2f3" d="m631.8688 463.8071l-80.65344 0l-4.354431 -4.354431l0 -21.771576l85.00787 0z" fill-rule="nonzero"></path><path stroke="#000000" stroke-width="2.0" stroke-linejoin="round" stroke-linecap="butt" d="m631.8688 463.8071l-80.65344 0l-4.354431 -4.354431l0 -21.771576l85.00787 0z" fill-rule="nonzero"></path><path fill="#cfe2f3" d="m461.95013 463.8071l80.65344 0l4.354431 4.3544006l0 21.771576l-85.00787 0z" fill-rule="nonzero"></path><path stroke="#000000" stroke-width="2.0" stroke-linejoin="round" stroke-linecap="butt" d="m461.95013 463.8071l80.65344 0l4.354431 4.3544006l0 21.771576l-85.00787 0z" fill-rule="nonzero"></path><path fill="#000000" fill-opacity="0.0" d="m546.958 437.67322l85.00787 0l0 26.126007l-85.00787 0z" fill-rule="nonzero"></path><path fill="#000000" d="m583.0115 452.8906l1.796875 0.453125q-0.5625 2.21875 -2.03125 3.390625q-1.46875 1.15625 -3.59375 1.15625q-2.203125 0 -3.578125 -0.890625q-1.375 -0.90625 -2.09375 -2.59375q-0.71875 -1.703125 -0.71875 -3.65625q0 -2.125 0.796875 -3.703125q0.8125 -1.578125 2.3125 -2.390625q1.5 -0.828125 3.296875 -0.828125q2.046875 0 3.4375 1.046875q1.390625 1.03125 1.9375 2.90625l-1.765625 0.421875q-0.46875 -1.484375 -1.375 -2.15625q-0.90625 -0.6875 -2.265625 -0.6875q-1.5625 0 -2.625 0.75q-1.046875 0.75 -1.484375 2.03125q-0.421875 1.265625 -0.421875 2.609375q0 1.734375 0.5 3.03125q0.515625 1.28125 1.578125 1.921875q1.078125 0.640625 2.3125 0.640625q1.515625 0 2.5625 -0.859375q1.046875 -0.875 1.421875 -2.59375zm7.2073364 3.265625l0.234375 1.484375q-0.703125 0.140625 -1.265625 0.140625q-0.90625 0 -1.40625 -0.28125q-0.5 -0.296875 -0.703125 -0.75q-0.203125 -0.46875 -0.203125 -1.984375l0 -5.65625l-1.234375 0l0 -1.3125l1.234375 0l0 -2.4375l1.65625 -1.0l0 3.4375l1.6875 0l0 1.3125l-1.6875 0l0 5.75q0 0.71875 0.078125 0.921875q0.09375 0.203125 0.296875 0.328125q0.203125 0.125 0.578125 0.125q0.265625 0 0.734375 -0.078125zm0.9020386 -3.421875q0 -2.734375 1.53125 -4.0625q1.265625 -1.09375 3.09375 -1.09375q2.03125 0 3.3125 1.34375q1.296875 1.328125 1.296875 3.671875q0 1.90625 -0.578125 3.0q-0.5625 1.078125 -1.65625 1.6875q-1.078125 0.59375 -2.375 0.59375q-2.0625 0 -3.34375 -1.328125q-1.28125 -1.328125 -1.28125 -3.8125zm1.71875 0q0 1.890625 0.828125 2.828125q0.828125 0.9375 2.078125 0.9375q1.25 0 2.0625 -0.9375q0.828125 -0.953125 0.828125 -2.890625q0 -1.828125 -0.828125 -2.765625q-0.828125 -0.9375 -2.0625 -0.9375q-1.25 0 -2.078125 0.9375q-0.828125 0.9375 -0.828125 2.828125zm9.266357 4.921875l0 -9.859375l1.5 0l0 1.5q0.578125 -1.046875 1.0625 -1.375q0.484375 -0.34375 1.078125 -0.34375q0.84375 0 1.71875 0.546875l-0.578125 1.546875q-0.609375 -0.359375 -1.234375 -0.359375q-0.546875 0 -0.984375 0.328125q-0.421875 0.328125 -0.609375 0.90625q-0.28125 0.890625 -0.28125 1.953125l0 5.15625l-1.671875 0z" fill-rule="nonzero"></path><path fill="#000000" fill-opacity="0.0" d="m836.6588 500.2139l-289.7008 -23.343811" fill-rule="nonzero"></path><path stroke="#000000" stroke-width="2.0" stroke-linejoin="round" stroke-linecap="butt" stroke-dasharray="2.0,6.0" d="m836.6588 500.2139l-277.73956 -22.380005" fill-rule="evenodd"></path><path fill="#000000" stroke="#000000" stroke-width="2.0" stroke-linecap="butt" d="m559.1846 474.5411l-9.312195 2.5638123l8.781555 4.0217896z" fill-rule="evenodd"></path><path fill="#cfe2f3" d="m836.6588 466.56824l85.00787 0l0 62.456726l-85.00787 0z" fill-rule="nonzero"></path><path stroke="#000000" stroke-width="2.0" stroke-linejoin="round" stroke-linecap="butt" d="m836.6588 466.56824l85.00787 0l0 62.456726l-85.00787 0z" fill-rule="nonzero"></path><path fill="#000000" fill-opacity="0.0" d="m836.6588 474.08792l85.00787 0l0 52.251984l-85.00787 0z" fill-rule="nonzero"></path><path fill="#000000" d="m854.61194 493.12454l0 -8.609375l0.953125 0l0 0.796875q0.34375 -0.46875 0.765625 -0.703125q0.4375 -0.234375 1.046875 -0.234375q0.796875 0 1.40625 0.40625q0.609375 0.40625 0.90625 1.15625q0.3125 0.75 0.3125 1.640625q0 0.953125 -0.34375 1.71875q-0.328125 0.765625 -0.984375 1.171875q-0.65625 0.40625 -1.375 0.40625q-0.53125 0 -0.953125 -0.21875q-0.421875 -0.234375 -0.6875 -0.5625l0 3.03125l-1.046875 0zm0.953125 -5.46875q0 1.203125 0.484375 1.78125q0.484375 0.5625 1.171875 0.5625q0.703125 0 1.203125 -0.59375q0.5 -0.59375 0.5 -1.84375q0 -1.1875 -0.484375 -1.765625q-0.484375 -0.59375 -1.171875 -0.59375q-0.671875 0 -1.1875 0.625q-0.515625 0.625 -0.515625 1.828125zm5.705078 3.078125l0 -6.21875l0.953125 0l0 0.9375q0.359375 -0.65625 0.65625 -0.859375q0.3125 -0.21875 0.6875 -0.21875q0.53125 0 1.078125 0.328125l-0.359375 0.984375q-0.390625 -0.234375 -0.765625 -0.234375q-0.359375 0 -0.640625 0.21875q-0.265625 0.203125 -0.375 0.578125q-0.1875 0.5625 -0.1875 1.21875l0 3.265625l-1.046875 0zm3.6210938 -3.109375q0 -1.734375 0.953125 -2.5625q0.796875 -0.6875 1.953125 -0.6875q1.28125 0 2.09375 0.84375q0.828125 0.828125 0.828125 2.3125q0 1.203125 -0.359375 1.890625q-0.359375 0.6875 -1.0625 1.078125q-0.6875 0.375 -1.5 0.375q-1.296875 0 -2.109375 -0.828125q-0.796875 -0.84375 -0.796875 -2.421875zm1.078125 0q0 1.1875 0.515625 1.78125q0.53125 0.59375 1.3125 0.59375q0.796875 0 1.3125 -0.59375q0.515625 -0.59375 0.515625 -1.8125q0 -1.15625 -0.53125 -1.75q-0.515625 -0.59375 -1.296875 -0.59375q-0.78125 0 -1.3125 0.59375q-0.515625 0.578125 -0.515625 1.78125zm5.986328 5.5l0 -8.609375l0.953125 0l0 0.796875q0.34375 -0.46875 0.765625 -0.703125q0.4375 -0.234375 1.046875 -0.234375q0.796875 0 1.40625 0.40625q0.609375 0.40625 0.90625 1.15625q0.3125 0.75 0.3125 1.640625q0 0.953125 -0.34375 1.71875q-0.328125 0.765625 -0.984375 1.171875q-0.65625 0.40625 -1.375 0.40625q-0.53125 0 -0.953125 -0.21875q-0.421875 -0.234375 -0.6875 -0.5625l0 3.03125l-1.046875 0zm0.953125 -5.46875q0 1.203125 0.484375 1.78125q0.484375 0.5625 1.171875 0.5625q0.703125 0 1.203125 -0.59375q0.5 -0.59375 0.5 -1.84375q0 -1.1875 -0.484375 -1.765625q-0.484375 -0.59375 -1.171875 -0.59375q-0.671875 0 -1.1875 0.625q-0.515625 0.625 -0.515625 1.828125zm9.970703 1.078125l1.09375 0.125q-0.25 0.953125 -0.953125 1.484375q-0.703125 0.53125 -1.78125 0.53125q-1.359375 0 -2.171875 -0.84375q-0.796875 -0.84375 -0.796875 -2.359375q0 -1.5625 0.8125 -2.421875q0.8125 -0.875 2.09375 -0.875q1.25 0 2.03125 0.84375q0.796875 0.84375 0.796875 2.390625q0 0.09375 0 0.28125l-4.640625 0q0.0625 1.03125 0.578125 1.578125q0.515625 0.53125 1.296875 0.53125q0.578125 0 0.984375 -0.296875q0.421875 -0.3125 0.65625 -0.96875zm-3.453125 -1.703125l3.46875 0q-0.0625 -0.796875 -0.390625 -1.1875q-0.515625 -0.609375 -1.3125 -0.609375q-0.734375 0 -1.234375 0.484375q-0.484375 0.484375 -0.53125 1.3125zm5.861328 3.703125l0 -6.21875l0.953125 0l0 0.9375q0.359375 -0.65625 0.65625 -0.859375q0.3125 -0.21875 0.6875 -0.21875q0.53125 0 1.078125 0.328125l-0.359375 0.984375q-0.390625 -0.234375 -0.765625 -0.234375q-0.359375 0 -0.640625 0.21875q-0.265625 0.203125 -0.375 0.578125q-0.1875 0.5625 -0.1875 1.21875l0 3.265625l-1.046875 0zm6.3085938 -0.9375l0.15625 0.921875q-0.453125 0.09375 -0.796875 0.09375q-0.578125 0 -0.890625 -0.171875q-0.3125 -0.1875 -0.453125 -0.484375q-0.125 -0.296875 -0.125 -1.25l0 -3.578125l-0.765625 0l0 -0.8125l0.765625 0l0 -1.546875l1.046875 -0.625l0 2.171875l1.0625 0l0 0.8125l-1.0625 0l0 3.640625q0 0.453125 0.046875 0.578125q0.0625 0.125 0.1875 0.203125q0.125 0.078125 0.359375 0.078125q0.1875 0 0.46875 -0.03125zm0.9902344 3.328125l-0.125 -0.984375q0.34375 0.09375 0.609375 0.09375q0.34375 0 0.546875 -0.125q0.21875 -0.109375 0.359375 -0.3125q0.09375 -0.171875 0.328125 -0.796875q0.015625 -0.078125 0.09375 -0.25l-2.375 -6.234375l1.140625 0l1.296875 3.59375q0.25 0.6875 0.453125 1.453125q0.1875 -0.734375 0.4375 -1.421875l1.328125 -3.625l1.046875 0l-2.359375 6.328125q-0.390625 1.015625 -0.59375 1.40625q-0.28125 0.53125 -0.65625 0.765625q-0.359375 0.25 -0.859375 0.25q-0.296875 0 -0.671875 -0.140625zm9.71875 -2.390625l-1.046875 0l0 -6.71875q-0.390625 0.359375 -1.015625 0.734375q-0.609375 0.359375 -1.09375 0.53125l0 -1.015625q0.875 -0.421875 1.53125 -1.0q0.671875 -0.59375 0.953125 -1.15625l0.671875 0l0 8.625z" fill-rule="nonzero"></path><path fill="#000000" d="m854.61194 507.12454l0 -8.609375l0.953125 0l0 0.796875q0.34375 -0.46875 0.765625 -0.703125q0.4375 -0.234375 1.046875 -0.234375q0.796875 0 1.40625 0.40625q0.609375 0.40625 0.90625 1.15625q0.3125 0.75 0.3125 1.640625q0 0.953125 -0.34375 1.71875q-0.328125 0.765625 -0.984375 1.171875q-0.65625 0.40625 -1.375 0.40625q-0.53125 0 -0.953125 -0.21875q-0.421875 -0.234375 -0.6875 -0.5625l0 3.03125l-1.046875 0zm0.953125 -5.46875q0 1.203125 0.484375 1.78125q0.484375 0.5625 1.171875 0.5625q0.703125 0 1.203125 -0.59375q0.5 -0.59375 0.5 -1.84375q0 -1.1875 -0.484375 -1.765625q-0.484375 -0.59375 -1.171875 -0.59375q-0.671875 0 -1.1875 0.625q-0.515625 0.625 -0.515625 1.828125zm5.705078 3.078125l0 -6.21875l0.953125 0l0 0.9375q0.359375 -0.65625 0.65625 -0.859375q0.3125 -0.21875 0.6875 -0.21875q0.53125 0 1.078125 0.328125l-0.359375 0.984375q-0.390625 -0.234375 -0.765625 -0.234375q-0.359375 0 -0.640625 0.21875q-0.265625 0.203125 -0.375 0.578125q-0.1875 0.5625 -0.1875 1.21875l0 3.265625l-1.046875 0zm3.6210938 -3.109375q0 -1.734375 0.953125 -2.5625q0.796875 -0.6875 1.953125 -0.6875q1.28125 0 2.09375 0.84375q0.828125 0.828125 0.828125 2.3125q0 1.203125 -0.359375 1.890625q-0.359375 0.6875 -1.0625 1.078125q-0.6875 0.375 -1.5 0.375q-1.296875 0 -2.109375 -0.828125q-0.796875 -0.84375 -0.796875 -2.421875zm1.078125 0q0 1.1875 0.515625 1.78125q0.53125 0.59375 1.3125 0.59375q0.796875 0 1.3125 -0.59375q0.515625 -0.59375 0.515625 -1.8125q0 -1.15625 -0.53125 -1.75q-0.515625 -0.59375 -1.296875 -0.59375q-0.78125 0 -1.3125 0.59375q-0.515625 0.578125 -0.515625 1.78125zm5.986328 5.5l0 -8.609375l0.953125 0l0 0.796875q0.34375 -0.46875 0.765625 -0.703125q0.4375 -0.234375 1.046875 -0.234375q0.796875 0 1.40625 0.40625q0.609375 0.40625 0.90625 1.15625q0.3125 0.75 0.3125 1.640625q0 0.953125 -0.34375 1.71875q-0.328125 0.765625 -0.984375 1.171875q-0.65625 0.40625 -1.375 0.40625q-0.53125 0 -0.953125 -0.21875q-0.421875 -0.234375 -0.6875 -0.5625l0 3.03125l-1.046875 0zm0.953125 -5.46875q0 1.203125 0.484375 1.78125q0.484375 0.5625 1.171875 0.5625q0.703125 0 1.203125 -0.59375q0.5 -0.59375 0.5 -1.84375q0 -1.1875 -0.484375 -1.765625q-0.484375 -0.59375 -1.171875 -0.59375q-0.671875 0 -1.1875 0.625q-0.515625 0.625 -0.515625 1.828125zm9.970703 1.078125l1.09375 0.125q-0.25 0.953125 -0.953125 1.484375q-0.703125 0.53125 -1.78125 0.53125q-1.359375 0 -2.171875 -0.84375q-0.796875 -0.84375 -0.796875 -2.359375q0 -1.5625 0.8125 -2.421875q0.8125 -0.875 2.09375 -0.875q1.25 0 2.03125 0.84375q0.796875 0.84375 0.796875 2.390625q0 0.09375 0 0.28125l-4.640625 0q0.0625 1.03125 0.578125 1.578125q0.515625 0.53125 1.296875 0.53125q0.578125 0 0.984375 -0.296875q0.421875 -0.3125 0.65625 -0.96875zm-3.453125 -1.703125l3.46875 0q-0.0625 -0.796875 -0.390625 -1.1875q-0.515625 -0.609375 -1.3125 -0.609375q-0.734375 0 -1.234375 0.484375q-0.484375 0.484375 -0.53125 1.3125zm5.861328 3.703125l0 -6.21875l0.953125 0l0 0.9375q0.359375 -0.65625 0.65625 -0.859375q0.3125 -0.21875 0.6875 -0.21875q0.53125 0 1.078125 0.328125l-0.359375 0.984375q-0.390625 -0.234375 -0.765625 -0.234375q-0.359375 0 -0.640625 0.21875q-0.265625 0.203125 -0.375 0.578125q-0.1875 0.5625 -0.1875 1.21875l0 3.265625l-1.046875 0zm6.3085938 -0.9375l0.15625 0.921875q-0.453125 0.09375 -0.796875 0.09375q-0.578125 0 -0.890625 -0.171875q-0.3125 -0.1875 -0.453125 -0.484375q-0.125 -0.296875 -0.125 -1.25l0 -3.578125l-0.765625 0l0 -0.8125l0.765625 0l0 -1.546875l1.046875 -0.625l0 2.171875l1.0625 0l0 0.8125l-1.0625 0l0 3.640625q0 0.453125 0.046875 0.578125q0.0625 0.125 0.1875 0.203125q0.125 0.078125 0.359375 0.078125q0.1875 0 0.46875 -0.03125zm0.9902344 3.328125l-0.125 -0.984375q0.34375 0.09375 0.609375 0.09375q0.34375 0 0.546875 -0.125q0.21875 -0.109375 0.359375 -0.3125q0.09375 -0.171875 0.328125 -0.796875q0.015625 -0.078125 0.09375 -0.25l-2.375 -6.234375l1.140625 0l1.296875 3.59375q0.25 0.6875 0.453125 1.453125q0.1875 -0.734375 0.4375 -1.421875l1.328125 -3.625l1.046875 0l-2.359375 6.328125q-0.390625 1.015625 -0.59375 1.40625q-0.28125 0.53125 -0.65625 0.765625q-0.359375 0.25 -0.859375 0.25q-0.296875 0 -0.671875 -0.140625zm11.296875 -3.40625l0 1.015625l-5.6875 0q0 -0.375 0.125 -0.734375q0.21875 -0.578125 0.6875 -1.140625q0.484375 -0.5625 1.390625 -1.296875q1.40625 -1.15625 1.890625 -1.828125q0.5 -0.671875 0.5 -1.265625q0 -0.625 -0.453125 -1.046875q-0.453125 -0.4375 -1.171875 -0.4375q-0.765625 0 -1.21875 0.453125q-0.453125 0.453125 -0.46875 1.265625l-1.078125 -0.109375q0.109375 -1.21875 0.828125 -1.84375q0.734375 -0.640625 1.96875 -0.640625q1.234375 0 1.953125 0.6875q0.71875 0.6875 0.71875 1.703125q0 0.515625 -0.21875 1.015625q-0.203125 0.484375 -0.703125 1.046875q-0.484375 0.546875 -1.609375 1.5q-0.953125 0.796875 -1.234375 1.09375q-0.265625 0.28125 -0.4375 0.5625l4.21875 0z" fill-rule="nonzero"></path><path fill="#000000" d="m875.2555 518.7339l0 -1.203125l1.203125 0l0 1.203125l-1.203125 0zm3.3339844 0l0 -1.203125l1.203125 0l0 1.203125l-1.203125 0zm3.3339844 0l0 -1.203125l1.203125 0l0 1.203125l-1.203125 0z" fill-rule="nonzero"></path><path fill="#000000" fill-opacity="0.0" d="m783.4871 452.1699l37.334106 13.398315l2.1574707 -5.9921265l7.673767 16.286743l-16.30371 7.6817627l2.1574707 -5.9921265l-37.334045 -13.398315z" fill-rule="nonzero"></path><path stroke="#000000" stroke-width="2.0" stroke-linejoin="round" stroke-linecap="butt" stroke-dasharray="2.0,6.0" d="m783.4871 452.1699l37.334106 13.398315l2.1574707 -5.9921265l7.673767 16.286743l-16.30371 7.6817627l2.1574707 -5.9921265l-37.334045 -13.398315z" fill-rule="nonzero"></path><path fill="#ffffff" d="m684.7953 444.4252l0 0c0 -19.838776 26.016846 -35.921265 58.11023 -35.921265l0 0c32.093384 0 58.11023 16.082489 58.11023 35.921265l0 0c0 19.838745 -26.016846 35.921265 -58.11023 35.921265l0 0c-32.093384 0 -58.11023 -16.08252 -58.11023 -35.921265z" fill-rule="nonzero"></path><path stroke="#000000" stroke-width="2.0" stroke-linejoin="round" stroke-linecap="butt" stroke-dasharray="2.0,6.0" d="m684.7953 444.4252l0 0c0 -19.838776 26.016846 -35.921265 58.11023 -35.921265l0 0c32.093384 0 58.11023 16.082489 58.11023 35.921265l0 0c0 19.838745 -26.016846 35.921265 -58.11023 35.921265l0 0c-32.093384 0 -58.11023 -16.08252 -58.11023 -35.921265z" fill-rule="nonzero"></path></g></svg>

